<svg xmlns="http://www.w3.org/2000/svg" viewBox="0 0 144.86 144.86"><defs><style>.a,.c{fill:#83c559;}.a{stroke:#231f20;}.a,.d{stroke-miterlimit:10;}.b{fill:#fff;}.d{fill:none;stroke:#fff;stroke-width:1.4px;}</style></defs><title>hub-icon</title><circle class="a" cx="72.43" cy="72.43" r="71.93"/><rect class="b" x="32.77" y="86.14" width="62.82" height="17.76" rx="2.71" ry="2.71"/><rect class="b" x="35.67" y="104.4" width="57" height="1.75"/><rect class="b" x="39.38" y="105.67" width="6.54" height="2.79"/><rect class="b" x="82.43" y="105.27" width="6.54" height="2.79"/><rect class="c" x="76.75" y="92.32" width="10.88" height="5.4"/><circle class="c" cx="72.04" cy="95.02" r="2.34"/><circle class="c" cx="64.79" cy="95.02" r="2.34"/><circle class="c" cx="57.55" cy="95.02" r="2.34"/><circle class="c" cx="50.3" cy="95.02" r="2.34"/><circle class="c" cx="43.06" cy="95.02" r="2.34"/><rect class="b" x="96.38" y="90.24" width="4.62" height="6.54"/><rect class="b" x="97.9" y="51.42" width="1.6" height="38.11"/><circle class="b" cx="98.7" cy="50.18" r="2.47"/><circle class="d" cx="98.48" cy="49.89" r="8.25"/><circle class="d" cx="98.48" cy="49.89" r="12.82"/><circle class="d" cx="98.48" cy="49.89" r="17.24"/></svg>