<svg xmlns="http://www.w3.org/2000/svg" viewBox="0 0 448.07 57.01"><defs><style>.a{fill:#333;}.a,.c{stroke:#333;stroke-miterlimit:10;stroke-width:2px;}.b{fill:#fff;}.c{fill:none;}</style></defs><title>Asset 4</title><path class="a" d="M40.31,24.91H69.19V54.21H60.48l-2.3-4.68C52.92,54.21,46.29,56,34.63,56,20.37,56,1,52.48,1,28.72,1,6.18,19,1,34.55,1,57.16,1,67.89,7.19,69.48,20.44H46.58a7.32,7.32,0,0,0-4-5.26A15.83,15.83,0,0,0,35.71,14c-8.28,0-13.54,4.1-13.54,14.55,0,9.5,5,14.54,15.12,14.54,6.62,0,9.94-2.59,11.38-6.48H40.31Z"/><path class="a" d="M93.31,39.74,70.48,2.8H93.67L103.46,23,113.25,2.8h23.19L113.61,39.74V54.21H93.31Z"/><path class="a" d="M138.37,2.8H167l8.42,29.88h.14L184,2.8h28.59V54.21H194.11V17.49H194l-10.8,36.72H167.75L157,17.49h-.14V54.21H138.37Z"/><path class="b" d="M212.54,2.82v0l0,37.54,31.69,0V54.21H194.11Zm37.24,0h54.65V15.33H270.09v6.91H302V34.77h-31.9v6.91h34.35V54.21H249.78Zm61.34,0h23.19L354.9,31.31h.22V2.8h19.44V54.21H352.31l-21.6-28.8h-.14v28.8H311.13ZM396,32.39c-9.94-1.51-14-7.27-14-14.47C382,4.6,395,1,411.71,1c22.9,0,32.33,6,33.05,16.85H421.14a4.23,4.23,0,0,0-3.1-4.1,16.27,16.27,0,0,0-6.34-1.08c-6,0-8.14,1.51-8.14,3.67,0,1.44.65,2.38,2.66,2.66l24.27,3.6c10.22,1.51,16.56,6.26,16.56,15C447.07,50.11,436.84,56,414,56c-15.63,0-32.69-2.16-32.76-17.28h24.48a4,4,0,0,0,2.16,3.67,16.62,16.62,0,0,0,6.91,1.08c6.34,0,8.06-1.73,8.06-4.18,0-1.51-.94-3-3.67-3.46Z"/><path class="c" d="M212.54,2.82v0l0,37.54,31.69,0V54.21H194.11Zm37.24,0h54.65V15.33H270.09v6.91H302V34.77h-31.9v6.91h34.35V54.21H249.78Zm61.34,0h23.19L354.9,31.31h.22V2.8h19.44V54.21H352.31l-21.6-28.8h-.14v28.8H311.13ZM396,32.39c-9.94-1.51-14-7.27-14-14.47C382,4.6,395,1,411.71,1c22.9,0,32.33,6,33.05,16.85H421.14a4.23,4.23,0,0,0-3.1-4.1,16.27,16.27,0,0,0-6.34-1.08c-6,0-8.14,1.51-8.14,3.67,0,1.44.65,2.38,2.66,2.66l24.27,3.6c10.22,1.51,16.56,6.26,16.56,15C447.07,50.11,436.84,56,414,56c-15.63,0-32.69-2.16-32.76-17.28h24.48a4,4,0,0,0,2.16,3.67,16.62,16.62,0,0,0,6.91,1.08c6.34,0,8.06-1.73,8.06-4.18,0-1.51-.94-3-3.67-3.46Z"/></svg>