<svg xmlns="http://www.w3.org/2000/svg" xmlns:xlink="http://www.w3.org/1999/xlink" viewBox="0 0 609.17 120.33"><defs><style>.a{fill:none;}.b{isolation:isolate;}.c{fill:#191919;}.d{fill:#989898;}.e,.h,.k,.n{mix-blend-mode:multiply;}.e{fill:url(#a);}.f{fill:#fff;}.g{fill:#b4b4b4;}.h{fill:url(#b);}.i{fill:#818181;}.j{fill:#676767;}.k{fill:url(#c);}.l{fill:#333;}.m{fill:#4e4e4e;}.n{fill:url(#d);}.o{fill:#1a1a1a;}.p,.u{fill:#83c559;}.p{stroke:#fff;stroke-miterlimit:10;stroke-width:0.5px;}.q{clip-path:url(#e);}.r{opacity:0.51;}.s{fill:#666766;}.t{fill:#231f20;}</style><linearGradient id="a" x1="277.72" y1="109.19" x2="277.72" y2="107.2" gradientUnits="userSpaceOnUse"><stop offset="0" stop-color="#f3f3f3"/><stop offset="1" stop-color="#fff"/></linearGradient><linearGradient id="b" x1="410.36" y1="443.79" x2="410.36" y2="440.99" gradientUnits="userSpaceOnUse"><stop offset="0" stop-color="#fff"/><stop offset="1" stop-color="#f3f3f3"/></linearGradient><linearGradient id="c" x1="410.4" y1="430.05" x2="410.4" y2="421.73" gradientUnits="userSpaceOnUse"><stop offset="0" stop-color="#fff"/><stop offset="1" stop-color="#ddd"/></linearGradient><linearGradient id="d" x1="410.44" y1="415.6" x2="410.44" y2="402.46" gradientUnits="userSpaceOnUse"><stop offset="0" stop-color="#fdfeff"/><stop offset="0.36" stop-color="#f0f1f1"/><stop offset="0.75" stop-color="#ddd"/></linearGradient><clipPath id="e" transform="translate(-132.65 -334.55)"><path class="a" d="M378.58,382.76l31.63,72.09L395.1,386.22S384.68,385.07,378.58,382.76Z"/></clipPath></defs><title>logo1</title><g class="b"><path class="c" d="M442.35,387.42h0c-.69-5.45-6-14.74-6.58-17.36s1.63-9,2.55-12.83,1-10.84-5.74-16.87-16.44-5.81-22.11-5.81-15.38-.21-22.11,5.81-6.66,13-5.74,16.87,3.12,10.2,2.55,12.83S379.3,382,378.6,387.42h0c-.47,2.21-1.3,6.78,1.05,6.85,22.47.71,8,4.8,29.93,4.8s17.06,2.86,31.72-4.8C443.39,393.18,442.83,389.63,442.35,387.42Zm-18-49.15c.32.1.72.22,1.16.4s.94.38,1.47.63,1.1.54,1.67.9c.29.17.58.37.88.56s.59.41.88.64l.44.34.43.37c.3.24.56.52.85.79a16.12,16.12,0,0,1,1.52,1.81,13.88,13.88,0,0,1,1.2,2c.15.36.32.72.44,1.08l.18.55.09.27.07.27a9.76,9.76,0,0,1,.23,1.07c0,.36.12.7.12,1,0,.17,0,.34,0,.5a3.86,3.86,0,0,1,0,.49q0,.48,0,.92c0,.29-.06.58-.08.84l0,.39c0,.12,0,.25-.07.36l-.13.65-.06.29-.07.26c-.19.66-.3,1-.3,1s0-.39.13-1.06l0-.26,0-.29,0-.65c0-.12,0-.24,0-.36v-.38c0-.26,0-.53,0-.82s0-.58-.06-.89-.08-.62-.11-.94a9.54,9.54,0,0,0-.19-1c-.06-.33-.17-.66-.26-1l-.07-.25-.09-.25-.19-.5c-.06-.17-.14-.33-.22-.5l-.23-.5-.26-.49c-.09-.16-.17-.33-.27-.49-.2-.32-.39-.64-.61-.93a15,15,0,0,0-1.42-1.73,19.87,19.87,0,0,0-1.59-1.49c-.26-.23-.55-.44-.81-.66s-.54-.41-.81-.59l-.4-.27-.4-.26c-.26-.17-.51-.32-.76-.47-.5-.29-1-.55-1.37-.77s-.78-.4-1.09-.55l-.71-.32-.26-.11S423.72,338.07,424.38,338.27ZM387.26,372l-.53.93c-.2.37-.44.76-.68,1.21l-.39.69-.4.75c-.29.5-.55,1.05-.85,1.61-.15.28-.28.57-.43.86s-.3.58-.44.88c-.28.6-.59,1.2-.84,1.82-.13.31-.26.62-.4.92s-.25.62-.37.93l-.36.91-.32.91-.31.88-.25.85c-.17.55-.34,1.08-.45,1.57l-.34,1.34-.2,1-.19.92,0-.94c0-.3,0-.66.06-1.08l.19-1.39c.06-.51.19-1.05.31-1.63.06-.29.13-.58.2-.89l.26-.91c.09-.31.17-.62.27-.94l.33-.95c.12-.32.22-.64.34-1l.39-.95c.25-.64.56-1.25.84-1.87s.61-1.19.91-1.76.63-1.1,1-1.59l.47-.72.46-.66c.3-.42.59-.79.85-1.12s.49-.6.7-.83.36-.4.47-.51l.17-.17Zm2.88-28.15c-.48.47-1,.93-1.39,1.44a18.51,18.51,0,0,0-1.21,1.52c-.36.52-.69,1-1,1.53s-.54,1-.75,1.46l-.29.67-.24.62c-.14.39-.26.74-.36,1-.16.58-.27.92-.27.92s0-.35,0-1l.06-.51a6,6,0,0,1,.09-.6l.14-.67c.05-.24.12-.48.2-.74s.17-.52.26-.79.21-.55.33-.83a15,15,0,0,1,.88-1.72c.18-.29.36-.57.56-.86s.41-.57.64-.84l.34-.41.36-.4c.23-.27.5-.52.75-.77a18.08,18.08,0,0,1,1.64-1.38,17.12,17.12,0,0,1,1.73-1.13,16.17,16.17,0,0,1,1.73-.86A15.34,15.34,0,0,1,396,339a12.4,12.4,0,0,1,1.42-.34l.6-.09.52,0a5,5,0,0,1,.72,0l.25,0-.25,0c-.16,0-.39.1-.68.19s-.63.21-1,.37-.81.35-1.28.57-1,.48-1.46.77-1,.61-1.56,1-1.06.73-1.58,1.14l-.39.31-.38.32C390.64,343.39,390.4,343.63,390.15,343.85Zm.92,11.17a10.83,10.83,0,0,1,.1-1.28c.06-.4.14-.78.21-1.12s.18-.65.27-.92.18-.5.26-.69c.16-.38.27-.58.27-.58s-.05.23-.12.63-.15,1-.21,1.64c0,.34-.05.71-.05,1.09s0,.79,0,1.21a12.21,12.21,0,0,0,.17,1.27,8.55,8.55,0,0,0,.34,1.25,7.55,7.55,0,0,0,.53,1.17c.11.18.22.36.33.53l.18.25.09.13.1.12a8.14,8.14,0,0,0,.8.85c.14.12.27.26.41.36l.41.32.39.28.18.13.18.11c.24.15.44.29.61.38.35.2.55.33.55.33s-.23,0-.64-.11a6.32,6.32,0,0,1-.72-.2l-.21-.07-.22-.09-.47-.2-.49-.27c-.17-.09-.33-.22-.51-.34a5.06,5.06,0,0,1-.5-.41,5.26,5.26,0,0,1-.48-.48,6.09,6.09,0,0,1-.44-.55c-.14-.19-.26-.4-.39-.61a7.47,7.47,0,0,1-.58-1.34,7.92,7.92,0,0,1-.32-1.41A9.26,9.26,0,0,1,391.06,355Zm27.12,8.23a37,37,0,0,0-3.64-.65l-.94-.1-.47,0-.47,0c-.32,0-.62,0-.95-.05l-1,0a33.52,33.52,0,0,0-7.44.78c-.59.11-1.16.29-1.72.42l-.82.24-.4.12-.4.13-.78.26-.74.28c-.49.17-1,.38-1.4.56s-.86.4-1.27.58l-1.13.56c-.69.38-1.31.71-1.79,1s-.88.53-1.14.7l-.4.25.35-.32c.23-.2.55-.52,1-.88.23-.18.47-.4.75-.6l.91-.67,1.07-.71c.39-.23.8-.48,1.23-.72s.89-.49,1.38-.72l.74-.35.78-.33.4-.17.41-.15.19-.07c-5.65-.46-9.15-4.54-7.55-10.35,2.05-7.42,12.79-7.77,17.5-7.77s15.45.35,17.5,7.77c1.6,5.8-1.89,9.87-7.52,10.35.51.19,1,.38,1.49.59a28.14,28.14,0,0,1,2.88,1.45c.43.26.84.5,1.22.75l1.06.73.9.68c.28.21.52.43.74.61.45.36.77.69,1,.9l.34.33-.4-.26c-.26-.17-.63-.42-1.12-.72-.25-.15-.51-.32-.81-.49l-1-.55-1.12-.58-1.26-.6c-.89-.39-1.85-.79-2.9-1.15A33.32,33.32,0,0,0,418.18,363.25Z" transform="translate(-132.65 -334.55)"/><ellipse class="d" cx="277.72" cy="108.19" rx="4.76" ry="0.99"/><ellipse class="e" cx="277.72" cy="108.19" rx="4.76" ry="0.99"/><path class="d" d="M410.21,454.85,404.1,443a1.42,1.42,0,0,0,.58.53c1.54.87,5.33,1.24,8.47.82,2-.26,3.19-.77,3.48-1.32h0l-6.15,11.84s0,0-.08,0a.36.36,0,0,1-.18,0Z" transform="translate(-132.65 -334.55)"/><path class="f" d="M410.42,444.81a13.38,13.38,0,0,1-5.8-1c-.68-.39-.76-.77-.71-1,.14-.71,1.51-1.31,3.67-1.6a20.85,20.85,0,0,1,2.76-.18,13.38,13.38,0,0,1,5.8,1c.68.39.76.77.71,1-.14.71-1.51,1.31-3.67,1.6A20.85,20.85,0,0,1,410.42,444.81Zm-.07-2.63a10.11,10.11,0,0,0-1.34.09c-1.13.15-1.59.45-1.62.61s.07.17.24.27a6.53,6.53,0,0,0,2.76.47h0a10.11,10.11,0,0,0,1.34-.09c1.13-.15,1.59-.45,1.62-.61s-.07-.17-.24-.27A6.53,6.53,0,0,0,410.35,442.18Z" transform="translate(-132.65 -334.55)"/><path class="g" d="M416.06,442c1.54.87.24,1.93-2.9,2.35s-6.93.06-8.47-.82-.24-1.93,2.9-2.35S414.52,441.1,416.06,442Zm-2.87.39A8.29,8.29,0,0,0,409,442c-1.56.21-2.2.73-1.44,1.16a8.29,8.29,0,0,0,4.2.41c1.56-.21,2.2-.73,1.44-1.16Z" transform="translate(-132.65 -334.55)"/><path class="h" d="M404.27,442.26a13,13,0,0,0,12.18,0h0a2,2,0,0,0-.39-.28c-1.54-.87-5.33-1.24-8.47-.82a6.4,6.4,0,0,0-3.31,1.1ZM409,442a8.29,8.29,0,0,1,4.2.41c.76.43.12,1-1.44,1.16a8.29,8.29,0,0,1-4.2-.41C406.79,442.69,407.43,442.17,409,442Z" transform="translate(-132.65 -334.55)"/><path class="i" d="M401.67,438.32l-6.11-11.86a3.36,3.36,0,0,0,1.38,1.25c3.64,2.07,12.62,2.94,20.06,1.94,4.62-.62,7.56-1.82,8.24-3.13l-6.16,11.84c-.4.77-2.12,1.47-4.83,1.84-4.36.59-9.63.08-11.77-1.14A2,2,0,0,1,401.67,438.32Z" transform="translate(-132.65 -334.55)"/><path class="f" d="M410.51,430.36c-5.86,0-11.11-.92-13.71-2.39-1.58-.9-1.78-1.79-1.66-2.38.32-1.66,3.55-3.07,8.63-3.75a49.29,49.29,0,0,1,6.54-.42c5.86,0,11.11.92,13.71,2.39,1.58.9,1.78,1.79,1.66,2.38-.32,1.66-3.55,3.07-8.63,3.75A49.31,49.31,0,0,1,410.51,430.36Z" transform="translate(-132.65 -334.55)"/><path class="j" d="M423.86,424.08c3.64,2.07.57,4.56-6.86,5.56s-16.41.13-20.06-1.94-.57-4.56,6.86-5.56S420.22,422,423.86,424.08Zm-13.4,1.8h-.09s0,0,0,0h.09s0,0,0,0Z" transform="translate(-132.65 -334.55)"/><path class="k" d="M423.86,424.08c3.64,2.07.57,4.56-6.86,5.56s-16.41.13-20.06-1.94-.57-4.56,6.86-5.56S420.22,422,423.86,424.08Zm-13.4,1.8h-.09s0,0,0,0h.09s0,0,0,0Z" transform="translate(-132.65 -334.55)"/><path class="l" d="M393.13,421.79,387,409.92a5.3,5.3,0,0,0,2.18,2c5.75,3.27,19.92,4.64,31.64,3.06,7.29-1,11.92-2.87,13-4.94l-6.15,11.84c-.8,1.53-4.21,2.92-9.59,3.65-8.65,1.16-19.11.15-23.35-2.26A3.91,3.91,0,0,1,393.13,421.79Z" transform="translate(-132.65 -334.55)"/><path class="f" d="M410.6,415.91c-9.21,0-17.47-1.44-21.55-3.75-2.4-1.37-2.71-2.69-2.54-3.57.49-2.55,5.53-4.7,13.47-5.77a77.58,77.58,0,0,1,10.29-.66c9.21,0,17.47,1.44,21.55,3.75,2.4,1.37,2.71,2.69,2.54,3.57-.49,2.55-5.53,4.7-13.47,5.77A77.59,77.59,0,0,1,410.6,415.91Zm-.21-8.29a20,20,0,0,0-2.65.17c-2.24.3-3.15.89-3.21,1.21,0,.14.15.34.48.53a12.9,12.9,0,0,0,5.47.94h0a20,20,0,0,0,2.65-.17c2.24-.3,3.15-.89,3.21-1.21,0-.14-.15-.34-.48-.53A12.9,12.9,0,0,0,410.39,407.62Z" transform="translate(-132.65 -334.55)"/><path class="m" d="M431.67,406.18c5.75,3.27.91,7.19-10.82,8.77s-25.89.21-31.64-3.06-.91-7.19,10.82-8.77S425.92,402.91,431.67,406.18ZM416,408.28c-1.51-.86-5.23-1.22-8.31-.8s-4.35,1.44-2.84,2.3,5.23,1.22,8.31.8,4.35-1.44,2.84-2.3Z" transform="translate(-132.65 -334.55)"/><path class="n" d="M431.67,406.18c5.75,3.27.91,7.19-10.82,8.77s-25.89.21-31.64-3.06-.91-7.19,10.82-8.77S425.92,402.91,431.67,406.18ZM416,408.28c-1.51-.86-5.23-1.22-8.31-.8s-4.35,1.44-2.84,2.3,5.23,1.22,8.31.8,4.35-1.44,2.84-2.3Z" transform="translate(-132.65 -334.55)"/><path class="o" d="M442.11,394a11.12,11.12,0,0,1-3.91,2.83,28.88,28.88,0,0,1-3.77,1.38c-.64.2-4.35,1.19-4.56,1.23h0a37,37,0,0,1-3.87.69,101.66,101.66,0,0,1-20,1h-.11l-2-.1c-2.41-.23-4.81-.36-7.21-.69-1-.09-2-.28-3-.45-.61-.1-1.24-.19-1.83-.34l-.83-.17H391l-.64-.14a33.74,33.74,0,0,1-5.79-1.72c-.78-.33-1.59-.56-2.35-1a12.57,12.57,0,0,1-2.15-1.43,7,7,0,0,1-1.49-1.48,45.94,45.94,0,0,1,2.19,4.41c1,2.07,2.1,4.08,3.12,6.14a7.92,7.92,0,0,0,3.38,3.44,30.63,30.63,0,0,0,10.08,3c1.93.27,3.87.44,5.81.6a90.28,90.28,0,0,0,12.41.19q3.1-.17,6.18-.58c1-.13,2-.27,2.93-.42s2-.49,3-.71,1.68-.38,2.51-.62a11.87,11.87,0,0,0,5-2.65,13.92,13.92,0,0,0,2.7-4.15c.72-1.52,1.52-3,2.3-4.46.66-1.26,1.33-2.5,1.95-3.78a2,2,0,0,1,.07-.19Z" transform="translate(-132.65 -334.55)"/><path class="f" d="M411,401.55c-1.64,0-3.33,0-5-.11h-.11l-2-.1-2.42-.21c-1.58-.13-3.21-.26-4.81-.48-.8-.08-1.63-.22-2.42-.36l-.54-.09-.36-.06h-.07a47.18,47.18,0,0,1-5.71-1.28,28.44,28.44,0,0,1-5.55-2.1,13.54,13.54,0,0,1-2.58-1.68,4.07,4.07,0,0,1-1.59-3.19s0-.06,0-.09a2.64,2.64,0,0,1,.2-.77v0l0-.07.16-.31.33.22h0l.17.11.26.16c5.36,2.95,11.65,4.05,17.09,4.75a115,115,0,0,0,14.7.88l2.6,0h.12a27.61,27.61,0,0,1,3.43-.19c.75,0,1.52,0,2.26-.07,1.89-.13,3.75-.31,5.54-.54a65.85,65.85,0,0,0,12.08-2.5h0a32.11,32.11,0,0,0,5.25-2.33l.08-.05.15-.1.31-.2.14.34.07.18a3,3,0,0,1-.23,2.46h0l-.08.12-.06.09h0a12.27,12.27,0,0,1-5.73,3.81,66.17,66.17,0,0,1-6.92,2h0a36.79,36.79,0,0,1-3.9.7A97.76,97.76,0,0,1,411,401.55Z" transform="translate(-132.65 -334.55)"/><path class="p" d="M442.63,391.36l-.06-.17-.16.1-.08.05a32.55,32.55,0,0,1-5.36,2.37h0a66.59,66.59,0,0,1-12.13,2.51q-2.77.34-5.55.54c-1.87.13-3.85,0-5.69.27h-.14a119.72,119.72,0,0,1-17.35-.86c-5.9-.75-12-1.9-17.21-4.79l-.26-.16-.19-.12-.05,0v0a2.4,2.4,0,0,0-.19.71s0,0,0,.07a3.81,3.81,0,0,0,1.49,2.94,13.29,13.29,0,0,0,2.52,1.64,27.93,27.93,0,0,0,5.49,2.08,46.92,46.92,0,0,0,5.67,1.27l.43.07c1,.16,2,.35,3,.45,2.4.33,4.81.46,7.21.69l2,.1H406a101.52,101.52,0,0,0,19.92-1,37,37,0,0,0,3.87-.69,70.92,70.92,0,0,0,6.88-2c2.19-.84,4.41-2,5.72-3.9l-.13.21A2.72,2.72,0,0,0,442.63,391.36Z" transform="translate(-132.65 -334.55)"/><g class="q"><g class="r"><path class="f" d="M410.21,454.85,404.1,443a1.42,1.42,0,0,0,.58.53c1.54.87,5.33,1.24,8.47.82,2-.26,3.19-.77,3.48-1.32h0l-6.15,11.84s0,0-.08,0a.36.36,0,0,1-.18,0Z" transform="translate(-132.65 -334.55)"/><path class="f" d="M401.67,438.32l-6.11-11.86a3.36,3.36,0,0,0,1.38,1.25c3.64,2.07,12.62,2.94,20.06,1.94,4.62-.62,7.56-1.82,8.24-3.13l-6.16,11.84c-.4.77-2.12,1.47-4.83,1.84-4.36.59-9.63.08-11.77-1.14A2,2,0,0,1,401.67,438.32Z" transform="translate(-132.65 -334.55)"/><path class="f" d="M393.13,421.79,387,409.92a5.3,5.3,0,0,0,2.18,2c5.75,3.27,19.92,4.64,31.64,3.06,7.29-1,11.92-2.87,13-4.94l-6.15,11.84c-.8,1.53-4.21,2.92-9.59,3.65-8.65,1.16-19.11.15-23.35-2.26A3.91,3.91,0,0,1,393.13,421.79Z" transform="translate(-132.65 -334.55)"/><path class="f" d="M442.11,394a11.12,11.12,0,0,1-3.91,2.83,28.88,28.88,0,0,1-3.77,1.38c-.64.2-4.35,1.19-4.56,1.23h0a37,37,0,0,1-3.87.69,101.66,101.66,0,0,1-20,1h-.11l-2-.1c-2.41-.23-4.81-.36-7.21-.69-1-.09-2-.28-3-.45-.61-.1-1.24-.19-1.83-.34l-.83-.17H391l-.64-.14a33.74,33.74,0,0,1-5.79-1.72c-.78-.33-1.59-.56-2.35-1a12.57,12.57,0,0,1-2.15-1.43,7,7,0,0,1-1.49-1.48,45.94,45.94,0,0,1,2.19,4.41c1,2.07,2.1,4.08,3.12,6.14a7.92,7.92,0,0,0,3.38,3.44,30.63,30.63,0,0,0,10.08,3c1.93.27,3.87.44,5.81.6a90.28,90.28,0,0,0,12.41.19q3.1-.17,6.18-.58c1-.13,2-.27,2.93-.42s2-.49,3-.71,1.68-.38,2.51-.62a11.87,11.87,0,0,0,5-2.65,13.92,13.92,0,0,0,2.7-4.15c.72-1.52,1.52-3,2.3-4.46.66-1.26,1.33-2.5,1.95-3.78a2,2,0,0,1,.07-.19Z" transform="translate(-132.65 -334.55)"/></g></g><path class="s" d="M384.64,393.51a16.44,16.44,0,0,1,1.84-12.41,18.34,18.34,0,0,1,10.63,1.65s-1.77,7.65,0,13.25A71,71,0,0,1,384.64,393.51Z" transform="translate(-132.65 -334.55)"/><path class="t" d="M189.92,434.29a55.79,55.79,0,0,1-19.08,3.29q-38.2,0-38.2-37.1,0-35.11,37.35-35.11a67.37,67.37,0,0,1,19.92,3v4.48a64.19,64.19,0,0,0-18.93-3q-33.12,0-33.12,30.63,0,32.62,32.17,32.62a56.33,56.33,0,0,0,14.64-2.19V404.7h5.23Z" transform="translate(-132.65 -334.55)"/><path class="t" d="M208.89,365.86h6.23l23.06,41.34,23.76-41.34h5.73L241,412.17v24.9h-5.23v-24.9Z" transform="translate(-132.65 -334.55)"/><path class="t" d="M286.62,437.08V365.86h5.23L324,431l30.13-65.09h4.73v71.22h-4.73V375.47l-28.29,61.61h-4.28L291.35,375v62.11Z" transform="translate(-132.65 -334.55)"/><path class="u" d="M467.73,366.35v66.74H509v4.48H462.5V366.35Z" transform="translate(-132.65 -334.55)"/><path class="u" d="M574.7,366.35v4.48H533.17v28.39H573v4.48H533.17v29.38H575.4v4.48H527.94V366.35Z" transform="translate(-132.65 -334.55)"/><path class="u" d="M594.37,437.57V366.35h6.72l47.56,62.36V366.35h4.73v71.22h-4.23L599.1,372.23v65.34Z" transform="translate(-132.65 -334.55)"/><path class="u" d="M672.34,435.08v-5.48a73.28,73.28,0,0,0,24.7,4q22.36,0,22.36-16.93,0-12.45-14.54-12.45H690.22q-19.87,0-19.87-17.93,0-20.42,29.14-20.42a89.49,89.49,0,0,1,23.16,3v5a77.52,77.52,0,0,0-23.16-3.49q-23.91,0-23.91,15.94,0,12.95,14.64,12.95h14.64q19.77,0,19.77,17.43,0,21.42-27.59,21.42A95.76,95.76,0,0,1,672.34,435.08Z" transform="translate(-132.65 -334.55)"/><path class="t" d="M731.91,364.23v-9.08h3.74q2.46,0,2.46,2.18,0,1.89-2.67,2.67l3.07,4.23h-.91l-3-4.21v-.45q2.79-.41,2.79-2.19t-1.83-1.64h-3v8.49Z" transform="translate(-132.65 -334.55)"/><path class="t" d="M734.73,366.79a7.1,7.1,0,1,1,7.1-7.1A7.1,7.1,0,0,1,734.73,366.79Zm0-13.65a6.55,6.55,0,1,0,6.55,6.55A6.56,6.56,0,0,0,734.73,353.14Z" transform="translate(-132.65 -334.55)"/></g></svg>