<svg xmlns="http://www.w3.org/2000/svg" viewBox="0 0 144.86 144.86"><defs><style>.a{fill:#83c559;stroke:#231f20;}.a,.b,.c{stroke-miterlimit:10;}.b{fill:#fff;}.b,.c{stroke:#fff;}.c{fill:none;stroke-linecap:round;stroke-width:1.66px;}</style></defs><title>transmitter-icon</title><circle class="a" cx="72.43" cy="72.43" r="71.93"/><polygon class="b" points="77.75 120.35 67.55 120.35 67.55 107.3 71.81 50.37 73.49 50.37 77.75 107.3 77.75 120.35"/><path class="c" d="M388,272.09A16.27,16.27,0,0,0,388,298" transform="translate(-323.57 -233.57)"/><path class="c" d="M382.45,266.07a23.84,23.84,0,0,0,0,37.91" transform="translate(-323.57 -233.57)"/><path class="c" d="M378,258.08A33.89,33.89,0,0,0,378,312" transform="translate(-323.57 -233.57)"/><path class="c" d="M404,298a16.27,16.27,0,0,0,0-25.86" transform="translate(-323.57 -233.57)"/><path class="c" d="M409.55,304a23.84,23.84,0,0,0,0-37.91" transform="translate(-323.57 -233.57)"/><path class="c" d="M414,312a33.89,33.89,0,0,0,0-53.89" transform="translate(-323.57 -233.57)"/></svg>